<svg xmlns="http://www.w3.org/2000/svg" version="1.1" viewBox="-5.0 -10.0 110.0 135.0">
 <path d="m16.664 25c0-6.9062 5.5938-12.5 12.5-12.5h41.664c6.9062 0 12.5 5.5938 12.5 12.5v50c0 6.8984-5.5938 12.5-12.5 12.5h-41.664c-6.9062 0-12.5-5.6016-12.5-12.5zm12.5-7.0859h41.664c3.9141 0 7.0859 3.1719 7.0859 7.0859v50c0 3.9062-3.1719 7.0781-7.0859 7.0781h-41.664c-3.9141 0-7.0859-3.1719-7.0859-7.0781v-50c0-3.9141 3.1719-7.0859 7.0859-7.0859zm12.203 20.375c-1.0625-1.0625-2.7734-1.0625-3.8359 0-1.0547 1.0547-1.0547 2.7734 0 3.8281l7.8828 7.8828-7.8828 7.875c-1.0547 1.0547-1.0547 2.7734 0 3.8281 1.0625 1.0625 2.7734 1.0625 3.8359 0l9.7891-9.7891c1.0625-1.0625 1.0625-2.7734 0-3.8359zm25.953 21.5c0 1.5-1.2109 2.7109-2.7109 2.7109h-10.578c-1.4922 0-2.7031-1.2109-2.7031-2.7109s1.2109-2.7109 2.7031-2.7109h10.578c1.5 0 2.7109 1.2188 2.7109 2.7109z" fill-rule="evenodd"/>
<text x="0.0" y="117.5" font-size="5.0" font-weight="bold" font-family="Arbeit Regular, Helvetica, Arial-Unicode, Arial, Sans-serif" fill="#000000">Created by LAFS</text><text x="0.0" y="122.5" font-size="5.0" font-weight="bold" font-family="Arbeit Regular, Helvetica, Arial-Unicode, Arial, Sans-serif" fill="#000000">from Noun Project</text></svg>